<svg width="33" height="33" viewBox="0 0 33 33" fill="none" xmlns="http://www.w3.org/2000/svg">
<path d="M24.4828 16.1385C24.3955 15.8725 24.2388 15.6347 24.0289 15.4496C23.8189 15.2645 23.5633 15.1389 23.2885 15.0856C23.0023 15.0387 22.7104 15.0387 22.4242 15.0856C22.2125 15.1269 22.0125 15.2145 21.8386 15.3422C21.6647 15.4699 21.5212 15.6345 21.4185 15.8242C21.2593 16.1065 21.1528 16.4153 21.1042 16.7356H24.3571C24.5142 16.7356 24.5614 16.7356 24.5456 16.5156C24.5401 16.3878 24.519 16.2612 24.4828 16.1385ZM24.4828 16.1385C24.3955 15.8725 24.2388 15.6347 24.0289 15.4496C23.8189 15.2645 23.5633 15.1389 23.2885 15.0856C23.0023 15.0387 22.7104 15.0387 22.4242 15.0856C22.2125 15.1269 22.0125 15.2145 21.8386 15.3422C21.6647 15.4699 21.5212 15.6345 21.4185 15.8242C21.2593 16.1065 21.1528 16.4153 21.1042 16.7356H24.3571C24.5142 16.7356 24.5614 16.7356 24.5456 16.5156C24.5401 16.3878 24.519 16.2612 24.4828 16.1385ZM24.4828 16.1385C24.3955 15.8725 24.2388 15.6347 24.0289 15.4496C23.8189 15.2645 23.5633 15.1389 23.2885 15.0856C23.0023 15.0387 22.7104 15.0387 22.4242 15.0856C22.2125 15.1269 22.0125 15.2145 21.8386 15.3422C21.6647 15.4699 21.5212 15.6345 21.4185 15.8242C21.2593 16.1065 21.1528 16.4153 21.1042 16.7356H24.3571C24.5142 16.7356 24.5614 16.7356 24.5456 16.5156C24.5401 16.3878 24.519 16.2612 24.4828 16.1385ZM24.4828 16.1385C24.3955 15.8725 24.2388 15.6347 24.0289 15.4496C23.8189 15.2645 23.5633 15.1389 23.2885 15.0856C23.0023 15.0387 22.7104 15.0387 22.4242 15.0856C22.2125 15.1269 22.0125 15.2145 21.8386 15.3422C21.6647 15.4699 21.5212 15.6345 21.4185 15.8242C21.2593 16.1065 21.1528 16.4153 21.1042 16.7356H24.3571C24.5142 16.7356 24.5614 16.7356 24.5456 16.5156C24.5401 16.3878 24.519 16.2612 24.4828 16.1385ZM24.3571 0.785645H8.64279C6.55894 0.785645 4.56045 1.61345 3.08695 3.08695C1.61345 4.56045 0.785645 6.55894 0.785645 8.64279V24.3571C0.785645 26.4409 1.61345 28.4394 3.08695 29.9129C4.56045 31.3864 6.55894 32.2142 8.64279 32.2142H24.3571C26.4409 32.2142 28.4394 31.3864 29.9129 29.9129C31.3864 28.4394 32.2142 26.4409 32.2142 24.3571V8.64279C32.2142 6.55894 31.3864 4.56045 29.9129 3.08695C28.4394 1.61345 26.4409 0.785645 24.3571 0.785645ZM17.6471 22.7856H15.1014C15.0577 22.7923 15.0131 22.7856 14.9733 22.7666C14.9336 22.7475 14.9004 22.7169 14.8782 22.6788C14.8635 22.6537 14.8539 22.6259 14.8499 22.5971C14.7242 22.2042 14.5828 21.8271 14.4571 21.4342C14.3314 21.0414 14.1428 20.5385 14.0014 20.0828C14.0014 19.8314 13.7971 19.7999 13.5771 19.7999H9.61707C9.44422 19.7999 9.44422 19.7999 9.38136 19.9885C9.3185 20.1771 9.22422 20.5071 9.12993 20.7742L8.8785 21.5914L8.5485 22.5499C8.55697 22.5914 8.55697 22.6342 8.5485 22.6756C8.5485 22.8799 8.29707 22.8485 8.13993 22.8485H6.11279C5.87707 22.8485 5.7985 22.7385 5.89279 22.5185C5.98707 22.2985 6.06564 22.0471 6.14422 21.8271L6.47422 20.8214L7.08707 19.0928C7.25993 18.6214 7.41707 18.1342 7.57422 17.6471C7.73136 17.1599 7.87279 16.8142 8.02993 16.3899L8.35993 15.3999L8.94136 13.8285L9.41279 12.4456C9.56993 12.0056 9.72707 11.5656 9.8685 11.1099C9.89057 10.8957 9.89057 10.6798 9.8685 10.4656C9.8685 10.1356 9.8685 10.1356 10.1985 10.1356H13.0428C13.2942 10.1356 13.2785 10.1356 13.3571 10.3714C13.4356 10.6071 13.6399 11.1414 13.7656 11.5185C13.8914 11.8956 14.0014 12.1785 14.1114 12.4928L14.4885 13.5142L14.8656 14.6142C15.0228 15.0385 15.1799 15.4471 15.3214 15.8714L15.7299 17.0028C15.8556 17.3799 15.9971 17.7571 16.1385 18.1499C16.2799 18.5428 16.3271 18.7314 16.4371 19.0142C16.5471 19.2971 16.6571 19.6428 16.7828 19.9571C16.9085 20.2714 16.9871 20.5542 17.0971 20.8528L17.5528 22.1256L17.7414 22.6756C17.8042 22.6599 17.7571 22.7856 17.6471 22.7856ZM27.0756 18.0714C27.083 18.2128 27.083 18.3542 27.0756 18.4956C27.0756 18.6371 26.8399 18.6842 26.6985 18.6842H21.1514C21.2079 19.1996 21.4342 19.6805 21.7956 20.0514C22.4505 20.4536 23.1937 20.6896 23.9605 20.7389C24.7274 20.7882 25.4947 20.6493 26.1956 20.3342C26.3214 20.3342 26.3842 20.3342 26.3842 20.4599V22.2356C26.3842 22.5185 26.2742 22.5499 26.0385 22.6442L25.4728 22.8171C25.2931 22.8701 25.109 22.9069 24.9228 22.9271C24.5299 22.9271 24.1371 23.0371 23.7442 23.0528C23.3514 23.0685 23.2099 23.0528 22.9428 23.0528H22.7856C22.4714 23.0528 22.1414 23.0528 21.8428 22.9428C20.976 22.7697 20.1848 22.3302 19.5799 21.6856C19.1962 21.2889 18.8968 20.8185 18.6999 20.3028C18.541 19.9264 18.4352 19.5298 18.3856 19.1242C18.3631 18.6635 18.3631 18.202 18.3856 17.7414C18.4092 17.1741 18.5161 16.6131 18.6999 16.0756C18.8545 15.6284 19.0714 15.2051 19.3442 14.8185C19.7023 14.279 20.1881 13.8363 20.7585 13.5299C21.0047 13.3875 21.2614 13.267 21.5285 13.1685C21.8186 13.0995 22.1124 13.047 22.4085 13.0114C22.6756 12.9956 22.9428 12.9956 23.2099 13.0114C23.6038 13.0176 23.9915 13.07 24.3728 13.1685C24.7185 13.2659 25.0485 13.4021 25.3628 13.5771C25.8467 13.8546 26.2481 14.256 26.5256 14.7399C26.6828 15.0228 26.8085 15.3056 26.9342 15.5885C27.0013 15.7886 27.0536 15.9929 27.0914 16.2014C27.2318 16.8153 27.2479 17.4511 27.1385 18.0714H27.0756ZM23.2256 15.1642C22.9395 15.1173 22.6475 15.1173 22.3614 15.1642C22.1496 15.2055 21.9496 15.2931 21.7757 15.4208C21.6018 15.5485 21.4584 15.7131 21.3556 15.9028C21.1965 16.185 21.09 16.4939 21.0414 16.8142H24.3571C24.5142 16.8142 24.5614 16.8142 24.5456 16.5942C24.5326 16.4544 24.5009 16.317 24.4514 16.1856C24.3739 15.9149 24.2251 15.67 24.0205 15.4765C23.8159 15.283 23.5631 15.148 23.2885 15.0856L23.2256 15.1642ZM24.4199 16.2171C24.3327 15.9511 24.176 15.7133 23.966 15.5282C23.756 15.3431 23.5004 15.2174 23.2256 15.1642C22.9395 15.1173 22.6475 15.1173 22.3614 15.1642C22.1496 15.2055 21.9496 15.2931 21.7757 15.4208C21.6018 15.5485 21.4584 15.7131 21.3556 15.9028C21.1965 16.185 21.09 16.4939 21.0414 16.8142H24.3571C24.5142 16.8142 24.5614 16.8142 24.5456 16.5942C24.5456 16.4392 24.5247 16.2873 24.4828 16.1385L24.4199 16.2171ZM24.4199 16.2171C24.3327 15.9511 24.176 15.7133 23.966 15.5282C23.756 15.3431 23.5004 15.2174 23.2256 15.1642C22.9395 15.1173 22.6475 15.1173 22.3614 15.1642C22.1496 15.2055 21.9496 15.2931 21.7757 15.4208C21.6018 15.5485 21.4584 15.7131 21.3556 15.9028C21.1965 16.185 21.09 16.4939 21.0414 16.8142H24.3571C24.5142 16.8142 24.5614 16.8142 24.5456 16.5942C24.5456 16.4392 24.5247 16.2873 24.4828 16.1385L24.4199 16.2171ZM24.4199 16.2171C24.3327 15.9511 24.176 15.7133 23.966 15.5282C23.756 15.3431 23.5004 15.2174 23.2256 15.1642C22.9395 15.1173 22.6475 15.1173 22.3614 15.1642C22.1496 15.2055 21.9496 15.2931 21.7757 15.4208C21.6018 15.5485 21.4584 15.7131 21.3556 15.9028C21.1965 16.185 21.09 16.4939 21.0414 16.8142H24.3571C24.5142 16.8142 24.5614 16.8142 24.5456 16.5942C24.5456 16.4392 24.5247 16.2873 24.4828 16.1385L24.4199 16.2171ZM24.4199 16.2171C24.3327 15.9511 24.176 15.7133 23.966 15.5282C23.756 15.3431 23.5004 15.2174 23.2256 15.1642C22.9395 15.1173 22.6475 15.1173 22.3614 15.1642C22.1496 15.2055 21.9496 15.2931 21.7757 15.4208C21.6018 15.5485 21.4584 15.7131 21.3556 15.9028C21.1965 16.185 21.09 16.4939 21.0414 16.8142H24.3571C24.5142 16.8142 24.5614 16.8142 24.5456 16.5942C24.5456 16.4392 24.5247 16.2873 24.4828 16.1385L24.4199 16.2171Z" fill="#D9D9D9"/>
<path d="M10.4025 17.0028L11.5 12.4928L13.0428 17.0028H10.4025Z" fill="#D9D9D9"/>
</svg>
