<svg width="33" height="33" viewBox="0 0 33 33" fill="none" xmlns="http://www.w3.org/2000/svg">
<path d="M27.1554 0.412603H5.84461C5.0768 0.411585 4.31634 0.562065 3.60678 0.855424C2.89722 1.14878 2.25251 1.57925 1.70958 2.12218C1.16666 2.6651 0.736184 3.30981 0.442826 4.01937C0.149467 4.72893 -0.00101296 5.4894 5.13164e-06 6.25721V26.743C-0.00101296 27.5108 0.149467 28.2713 0.442826 28.9808C0.736184 29.6904 1.16666 30.3351 1.70958 30.878C2.25251 31.421 2.89722 31.8514 3.60678 32.1448C4.31634 32.4381 5.0768 32.5886 5.84461 32.5876H27.1554C27.9232 32.5886 28.6837 32.4381 29.3932 32.1448C30.1028 31.8514 30.7475 31.421 31.2904 30.878C31.8334 30.3351 32.2638 29.6904 32.5572 28.9808C32.8505 28.2713 33.001 27.5108 33 26.743V6.25721C33.001 5.4894 32.8505 4.72893 32.5572 4.01937C32.2638 3.30981 31.8334 2.6651 31.2904 2.12218C30.7475 1.57925 30.1028 1.14878 29.3932 0.855424C28.6837 0.562065 27.9232 0.411585 27.1554 0.412603ZM20.1713 23.1001H17.2966C17.2482 23.1038 17.2 23.0907 17.1601 23.063C17.1201 23.0353 17.091 22.9947 17.0775 22.948L15.9509 19.6635H10.8281L9.79688 22.8939C9.78561 22.9524 9.75296 23.0046 9.7053 23.0403C9.65764 23.076 9.59838 23.0928 9.53907 23.0872H6.96094C6.81141 23.0872 6.77016 23.0047 6.81141 22.8294L11.22 10.0935C11.2613 9.95424 11.3025 9.80471 11.3566 9.63971C11.413 9.34488 11.4406 9.04527 11.4391 8.7451C11.4352 8.71047 11.4445 8.67564 11.465 8.64748C11.4855 8.61931 11.5158 8.59987 11.55 8.59299H15.1104C15.2213 8.59299 15.2754 8.63424 15.2909 8.70385L20.3079 22.8655C20.3491 23.0176 20.3079 23.0872 20.1713 23.0872V23.1001ZM24.915 22.9454C24.915 23.0975 24.8609 23.1646 24.7371 23.1646H22.0404C22.0116 23.1667 21.9827 23.1625 21.9558 23.152C21.9289 23.1416 21.9047 23.1253 21.8849 23.1043C21.8651 23.0833 21.8503 23.0581 21.8415 23.0306C21.8327 23.0031 21.8302 22.974 21.8341 22.9454V12.3467C21.8341 12.2101 21.8909 12.156 22.0146 12.156H24.75C24.8738 12.156 24.9279 12.223 24.9279 12.3467L24.915 22.9454ZM24.6263 10.5189C24.4641 10.6835 24.2687 10.8117 24.0531 10.8949C23.8375 10.978 23.6066 11.0142 23.3759 11.001C23.15 11.0059 22.9253 10.9659 22.7151 10.8831C22.5048 10.8003 22.3131 10.6765 22.1513 10.5189C21.8348 10.175 21.6671 9.71998 21.6846 9.25299C21.675 9.02645 21.7134 8.80043 21.7974 8.5898C21.8814 8.37918 22.009 8.18872 22.1719 8.03096C22.5013 7.71794 22.9395 7.54509 23.3939 7.54885C23.6249 7.53691 23.8558 7.57366 24.0716 7.65671C24.2875 7.73977 24.4835 7.86728 24.6469 8.03096C24.9507 8.36413 25.1134 8.80225 25.1006 9.25299C25.1099 9.48495 25.0726 9.71641 24.9912 9.93379C24.9097 10.1512 24.7856 10.3501 24.6263 10.5189ZM15.1259 16.8714H11.6325C11.8388 16.2939 12.045 15.6467 12.2384 14.9455C12.4317 14.2442 12.6638 13.5714 12.87 12.9114C13.0578 12.3291 13.2136 11.7369 13.3366 11.1376H13.365C13.4604 11.4676 13.5584 11.826 13.6666 12.2101C13.7749 12.5942 13.9013 13.0067 14.0379 13.4347C14.1745 13.8627 14.2957 14.2726 14.4375 14.698C14.5793 15.1234 14.6953 15.5101 14.8088 15.8814C14.9222 16.2526 15.0434 16.5826 15.1259 16.8714Z" fill="#D9D9D9"/>
</svg>
