<svg width="14" height="20" viewBox="0 0 14 20" fill="none" xmlns="http://www.w3.org/2000/svg">
<path opacity="0.6" d="M6.66701 0H3.33301C2.44891 0 1.60102 0.351207 0.975872 0.97636C0.350719 1.60151 -0.000488281 2.4494 -0.000488281 3.3335C-0.000488281 4.2176 0.350719 5.06549 0.975872 5.69064C1.60102 6.31579 2.44891 6.667 3.33301 6.667H6.66701V0Z" fill="#D9D9D9"/>
<path opacity="0.4" d="M6.667 6.66699H3.333C2.44903 6.66699 1.60127 7.01815 0.976213 7.64321C0.351154 8.26826 0 9.11603 0 9.99999C0 10.884 0.351154 11.7317 0.976213 12.3568C1.60127 12.9818 2.44903 13.333 3.333 13.333H6.667V6.66699Z" fill="#D9D9D9"/>
<path d="M13.333 10C13.333 10.8841 12.9818 11.732 12.3567 12.3571C11.7315 12.9823 10.8836 13.3335 9.99952 13.3335C9.11542 13.3335 8.26753 12.9823 7.64237 12.3571C7.01722 11.732 6.66602 10.8841 6.66602 10C6.66602 9.1159 7.01722 8.26802 7.64237 7.64286C8.26753 7.01771 9.11542 6.6665 9.99952 6.6665C10.8836 6.6665 11.7315 7.01771 12.3567 7.64286C12.9818 8.26802 13.333 9.1159 13.333 10Z" fill="#D9D9D9"/>
<path opacity="0.2" d="M3.33298 13.334H6.66698V16.667C6.66678 17.3261 6.47116 17.9704 6.10485 18.5183C5.73854 19.0663 5.21799 19.4933 4.609 19.7455C4.00001 19.9976 3.32994 20.0636 2.6835 19.9349C2.03705 19.8063 1.44326 19.4889 0.977191 19.0228C0.511123 18.5567 0.193706 17.9629 0.0650695 17.3165C-0.063567 16.67 0.00235346 16 0.254496 15.391C0.506639 14.782 0.933683 14.2614 1.48164 13.8951C2.02959 13.5288 2.67386 13.3342 3.33298 13.334Z" fill="#D9D9D9"/>
<path opacity="0.8" d="M6.66602 0H9.99901C10.8831 0 11.731 0.351207 12.3562 0.97636C12.9813 1.60151 13.3325 2.4494 13.3325 3.3335C13.3325 4.2176 12.9813 5.06549 12.3562 5.69064C11.731 6.31579 10.8831 6.667 9.99901 6.667H6.66602V0Z" fill="#D9D9D9"/>
</svg>
