<svg width="33" height="33" viewBox="0 0 33 33" fill="none" xmlns="http://www.w3.org/2000/svg">
<path fill-rule="evenodd" clip-rule="evenodd" d="M31.6217 15.1016L17.8985 1.37676C17.5185 0.998202 17.004 0.785645 16.4677 0.785645C15.9313 0.785645 15.4168 0.998202 15.0369 1.37676L12.1879 4.22891L15.8022 7.84319C16.2283 7.69868 16.6865 7.67665 17.1246 7.77964C17.5626 7.88262 17.963 8.10647 18.2801 8.42572C18.5972 8.74498 18.8184 9.14683 18.9184 9.58556C19.0185 10.0243 18.9934 10.4823 18.846 10.9075L22.3299 14.3913C22.8505 14.2124 23.4167 14.2173 23.9341 14.4052C24.4516 14.5931 24.889 14.9526 25.1735 15.4239C25.458 15.8952 25.5724 16.4498 25.4976 16.9951C25.4228 17.5405 25.1633 18.0438 24.7624 18.4211C24.3615 18.7984 23.8435 19.0269 23.2946 19.0686C22.7456 19.1102 22.199 18.9625 21.7458 18.65C21.2926 18.3375 20.9602 17.8791 20.804 17.3512C20.6478 16.8233 20.6772 16.2579 20.8873 15.7491L17.6376 12.4993V21.0495C18.1314 21.2938 18.5265 21.7 18.7571 22.2003C18.9877 22.7006 19.0398 23.2649 18.9048 23.799C18.7698 24.3331 18.4558 24.8048 18.0151 25.1355C17.5745 25.4661 17.0338 25.6357 16.4833 25.6161C15.9327 25.5964 15.4055 25.3886 14.9896 25.0274C14.5736 24.6662 14.2941 24.1733 14.1975 23.6309C14.101 23.0885 14.1932 22.5294 14.4589 22.0468C14.7246 21.5642 15.1477 21.1872 15.6576 20.9788V12.3516C15.3633 12.2315 15.0957 12.0541 14.8703 11.8299C14.645 11.6056 14.4663 11.3389 14.3447 11.0452C14.2231 10.7514 14.161 10.4365 14.162 10.1186C14.1629 9.80065 14.2269 9.48608 14.3502 9.19305L10.7878 5.62748L1.37804 15.0356C0.998995 15.4156 0.786133 15.9305 0.786133 16.4672C0.786133 17.0039 0.998995 17.5188 1.37804 17.8988L15.1013 31.6205C15.4813 31.999 15.9958 32.2116 16.5321 32.2116C17.0685 32.2116 17.5829 31.999 17.9629 31.6205L31.6217 17.9616C32.0008 17.5816 32.2137 17.0668 32.2137 16.5301C32.2137 15.9933 32.0008 15.4785 31.6217 15.0985" fill="#D9D9D9"/>
</svg>
