<svg width="33" height="33" viewBox="0 0 33 33" fill="none" xmlns="http://www.w3.org/2000/svg">
<path d="M5.80547 0.458252C4.3873 0.458252 3.02722 1.02162 2.02442 2.02442C1.02162 3.02722 0.458252 4.3873 0.458252 5.80547V27.1944C0.458252 28.6125 1.02162 29.9726 2.02442 30.9754C3.02722 31.9782 4.3873 32.5416 5.80547 32.5416H27.1944C28.6125 32.5416 29.9726 31.9782 30.9754 30.9754C31.9782 29.9726 32.5416 28.6125 32.5416 27.1944V5.80547C32.5416 4.3873 31.9782 3.02722 30.9754 2.02442C29.9726 1.02162 28.6125 0.458252 27.1944 0.458252H5.80547ZM18.8777 23.7276C20.161 24.7614 21.4419 25.2711 22.7205 25.2569C23.5048 25.2569 24.106 25.1131 24.5243 24.8255C24.7191 24.6991 24.8775 24.5242 24.9841 24.3179C25.0907 24.1116 25.1417 23.8811 25.1321 23.6492C25.1348 23.3961 25.082 23.1456 24.9772 22.9152C24.8725 22.6848 24.7185 22.4803 24.5261 22.3159C24.1078 21.9511 23.3164 21.5851 22.1519 21.218C20.7533 20.8139 19.675 20.2911 18.9169 19.6494C18.173 19.0078 17.7939 18.1124 17.7797 16.9633C17.7797 15.8785 18.2502 14.97 19.1914 14.238C20.1063 13.5061 21.2768 13.1401 22.7027 13.1401C24.6895 13.1401 26.2836 13.6237 27.4849 14.591L26.1124 16.7281C25.6182 16.3438 25.0513 16.0637 24.4459 15.9046C23.9018 15.7223 23.3334 15.6232 22.7597 15.6105C22.0824 15.6105 21.54 15.7347 21.1324 15.983C20.7284 16.2326 20.5264 16.5593 20.5264 16.9633C20.5264 17.4078 20.7741 17.7868 21.2696 18.1005C21.7687 18.4023 22.6183 18.7357 23.8185 19.1005C25.2694 19.5318 26.302 20.1069 26.9163 20.8258C27.5306 21.5447 27.8378 22.4597 27.8378 23.5707C27.8378 24.7079 27.3999 25.6882 26.5242 26.5117C25.6615 27.3221 24.4067 27.7469 22.7597 27.7861C20.603 27.7861 18.7992 27.1391 17.3483 25.8451L18.8777 23.7276ZM9.02094 24.8648C9.43921 25.1262 9.94244 25.2569 10.5306 25.2569C11.145 25.2569 11.6547 25.0804 12.0599 24.7275C12.464 24.3615 12.6666 23.7276 12.6677 22.8257V13.3754H15.3146V23.3355C15.2754 24.8778 14.831 25.9889 13.9814 26.6686C13.5165 27.0616 12.976 27.3552 12.3933 27.5312C11.8529 27.6958 11.2916 27.7816 10.7267 27.7861C9.74638 27.7861 8.87716 27.6162 8.11904 27.2764C7.30864 26.9116 6.62895 26.2645 6.07997 25.3353L7.92298 23.8256C8.26163 24.2831 8.62762 24.6295 9.02094 24.8648Z" fill="#D9D9D9"/>
</svg>
