<svg width="31" height="32" viewBox="0 0 31 32" fill="none" xmlns="http://www.w3.org/2000/svg">
<path d="M23.0061 29.1224C22.8908 29.1835 22.9005 29.2029 23.011 29.1466C23.0451 29.1329 23.0763 29.1128 23.103 29.0874C23.103 29.0671 23.103 29.0671 23.0061 29.1224ZM23.2386 28.9962C23.1834 29.0418 23.1834 29.0418 23.2493 29.0117C23.2732 28.9996 23.2954 28.9843 23.3151 28.9661C23.3151 28.9399 23.2996 28.9457 23.2386 28.9962ZM23.3897 28.905C23.3345 28.9506 23.3345 28.9506 23.4004 28.9205C23.4244 28.9081 23.4466 28.8924 23.4663 28.8739C23.4663 28.8496 23.4508 28.8545 23.3897 28.905ZM23.5428 28.8147C23.4876 28.8603 23.4876 28.8603 23.5515 28.8293C23.5874 28.8098 23.6174 28.7895 23.6174 28.7836C23.6174 28.7594 23.6019 28.7642 23.5428 28.8147ZM23.7491 28.6778C23.6435 28.7487 23.6067 28.7943 23.7036 28.7438C23.7685 28.7041 23.8789 28.6167 23.8596 28.6167C23.8179 28.6322 23.784 28.6584 23.7491 28.6778ZM14.4853 0.0105518C14.4145 0.0154048 14.2024 0.0348165 14.0164 0.0503459C9.61067 0.450228 5.48877 2.82623 2.87613 6.48632C1.43137 8.49321 0.492769 10.8206 0.140464 13.2698C0.0154995 14.1239 0 14.3762 0 15.5341C0 16.6911 0.0154995 16.9396 0.140464 17.7937C0.984219 23.6279 5.12646 28.5255 10.7412 30.3405C11.7515 30.6637 12.8103 30.8869 14.0164 31.0238C14.4853 31.0742 16.5128 31.0742 16.9817 31.0238C19.0663 30.7908 20.8265 30.2754 22.5683 29.3854C22.8356 29.2495 22.886 29.2136 22.8502 29.1835C22.0005 28.0582 21.158 26.9274 20.3228 25.7913L17.8458 22.4399L14.7429 17.8344C13.7109 16.2924 12.6682 14.7576 11.6149 13.23C11.6043 13.23 11.5907 15.2769 11.5849 17.7733C11.5743 22.1458 11.5743 22.3234 11.519 22.4243C11.4662 22.5464 11.3713 22.6453 11.2517 22.7029C11.1558 22.7485 11.0696 22.7582 10.6114 22.7582H10.0873L9.95069 22.6728C9.86529 22.6177 9.79581 22.541 9.7492 22.4506L9.68332 22.3137L9.68817 16.2271L9.69882 10.1406L9.79473 10.0193C9.85677 9.94548 9.932 9.88392 10.0166 9.83776C10.1435 9.77661 10.1938 9.76691 10.7179 9.76691C11.3331 9.76691 11.4348 9.79117 11.5965 9.96879C12.8535 11.8419 14.0996 13.7223 15.3348 15.6098C17.3488 18.6691 20.098 22.8436 21.4494 24.8916L23.907 28.6177L24.0281 28.5371C25.2088 27.7502 26.2791 26.8085 27.2104 25.737C29.1626 23.4977 30.4296 20.7423 30.8595 17.8005C30.9845 16.9463 31 16.693 31 15.5361C31 14.3791 30.9845 14.1307 30.8595 13.2766C30.0158 7.44235 25.8735 2.54476 20.2588 0.728787C19.2095 0.395906 18.1294 0.169273 17.0349 0.0522871C16.7414 0.0221989 14.7381 -0.0137129 14.4862 0.012493L14.4853 0.0105518ZM20.8275 9.40294C20.8996 9.43826 20.964 9.48773 21.0167 9.54841C21.0695 9.60909 21.1095 9.67976 21.1346 9.75623C21.1607 9.83776 21.1656 11.5256 21.1607 15.3274L21.1501 20.786L20.192 19.3107L19.2281 17.8344V13.8715C19.2281 11.3024 19.2388 9.86202 19.2523 9.79117C19.2998 9.62871 19.4085 9.49117 19.5555 9.40779C19.6757 9.34664 19.7222 9.34179 20.2017 9.34179C20.6502 9.34179 20.7267 9.34664 20.8275 9.40294Z" fill="#D9D9D9"/>
</svg>
