<svg width="30" height="33" viewBox="0 0 30 33" fill="none" xmlns="http://www.w3.org/2000/svg">
<path d="M14.8622 32.9998C14.4231 32.9998 13.9895 32.8843 13.6035 32.6601L9.60128 30.2704C9.00264 29.9335 9.29446 29.8139 9.49218 29.7451C10.2885 29.4646 10.4508 29.4014 11.3017 28.9133C11.3917 28.8624 11.509 28.8803 11.6004 28.9339L14.6754 30.775C14.733 30.8047 14.7968 30.8202 14.8615 30.8202C14.9262 30.8202 14.99 30.8047 15.0476 30.775L27.0395 23.7941C27.0949 23.76 27.1408 23.7121 27.1727 23.6551C27.2047 23.5981 27.2217 23.5338 27.2222 23.4683V9.5134C27.2226 9.44646 27.2058 9.38057 27.1732 9.32222C27.1407 9.26386 27.0937 9.21507 27.0367 9.18065L15.0504 2.20665C14.9942 2.17381 14.9305 2.15651 14.8656 2.15651C14.8007 2.15651 14.737 2.17381 14.6808 2.20665L2.69446 9.18065C2.63716 9.21432 2.58955 9.26245 2.55632 9.32032C2.52308 9.37818 2.50536 9.44378 2.50491 9.51065V23.4641C2.50491 23.5975 2.57718 23.7254 2.69173 23.7886L5.97537 25.7013C7.759 26.6005 8.84855 25.5418 8.84855 24.4761V10.7041C8.84781 10.658 8.8563 10.6121 8.87353 10.5693C8.89076 10.5265 8.91637 10.4876 8.94883 10.455C8.98128 10.4224 9.01992 10.3968 9.06244 10.3796C9.10495 10.3624 9.15047 10.354 9.19627 10.3549H10.7154C10.9049 10.3549 11.0604 10.5061 11.0604 10.7041V24.4816C11.0604 26.8796 9.76491 28.256 7.50946 28.256C6.81537 28.256 6.26855 28.256 4.744 27.4998L1.59809 25.671C1.21571 25.4458 0.89845 25.1237 0.677876 24.7365C0.457302 24.3493 0.341097 23.9107 0.34082 23.4641V9.51065C0.34082 8.60315 0.82082 7.75477 1.59809 7.3079L13.6035 0.324271C13.9902 0.111497 14.4237 0 14.8642 0C15.3047 0 15.7382 0.111497 16.1249 0.324271L28.114 7.30927C28.8885 7.76165 29.3713 8.6059 29.3713 9.5134V23.4683C29.3703 23.9141 29.2537 24.3519 29.0332 24.7383C28.8127 25.1247 28.4958 25.4462 28.114 25.671L16.1249 32.6546C15.7404 32.8775 15.3043 32.9942 14.8608 32.9929L14.8622 32.9998ZM18.5658 23.3844C13.3185 23.3844 12.2195 20.9561 12.2195 18.9184C12.2195 18.7259 12.3735 18.5705 12.5658 18.5705H14.1149C14.2867 18.5705 14.4299 18.6956 14.4572 18.8661C14.6917 20.4584 15.3885 21.2614 18.5617 21.2614C21.0885 21.2614 22.1631 20.6853 22.1631 19.3336C22.1631 18.5554 21.8563 17.9779 17.9304 17.5901C14.6467 17.2629 12.6176 16.5341 12.6176 13.8859C12.6176 11.4453 14.659 9.99327 18.0776 9.99327C21.9163 9.99327 23.8199 11.3366 24.0599 14.2241C24.0641 14.2727 24.0582 14.3217 24.0426 14.3678C24.027 14.414 24.0021 14.4564 23.9694 14.4923C23.9367 14.5283 23.8969 14.557 23.8527 14.5766C23.8084 14.5962 23.7605 14.6064 23.7122 14.6064H22.1535C22.0749 14.6068 21.9986 14.5798 21.9374 14.5299C21.8763 14.48 21.8341 14.4104 21.8181 14.3328C21.4431 12.6594 20.5363 12.1231 18.0722 12.1231C15.3135 12.1231 14.9917 13.0925 14.9917 13.8185C14.9917 14.6985 15.3695 14.957 19.0922 15.4534C22.7781 15.947 24.529 16.6428 24.529 19.2553C24.529 21.8884 22.3485 23.3995 18.5495 23.3995L18.5658 23.3844Z" fill="#D9D9D9"/>
</svg>
