<svg width="33" height="33" viewBox="0 0 33 33" fill="none" xmlns="http://www.w3.org/2000/svg">
<path fill-rule="evenodd" clip-rule="evenodd" d="M6.25401 0.399414C4.70121 0.399414 3.21201 1.01626 2.11401 2.11426C1.01602 3.21225 0.39917 4.70145 0.39917 6.25425V26.7462C0.39917 28.299 1.01602 29.7882 2.11401 30.8862C3.21201 31.9842 4.70121 32.601 6.25401 32.601H26.7459C28.2987 32.601 29.7879 31.9842 30.8859 30.8862C31.9839 29.7882 32.6008 28.299 32.6008 26.7462V6.25425C32.6008 4.70145 31.9839 3.21225 30.8859 2.11426C29.7879 1.01626 28.2987 0.399414 26.7459 0.399414H6.25401ZM9.18143 8.44982H7.71772V23.0869H10.6451V18.6958H12.8407C13.5135 18.6958 14.1796 18.5633 14.8012 18.3058C15.4227 18.0484 15.9875 17.671 16.4632 17.1953C16.9389 16.7196 17.3163 16.1548 17.5737 15.5333C17.8312 14.9117 17.9637 14.2456 17.9637 13.5728C17.9637 12.9 17.8312 12.2339 17.5737 11.6123C17.3163 10.9908 16.9389 10.426 16.4632 9.9503C15.9875 9.47459 15.4227 9.09724 14.8012 8.83978C14.1796 8.58233 13.5135 8.44982 12.8407 8.44982H9.18143ZM12.8407 15.7684H10.6451V11.3772H12.8407C13.423 11.3772 13.9815 11.6086 14.3932 12.0203C14.8049 12.4321 15.0363 12.9905 15.0363 13.5728C15.0363 14.1551 14.8049 14.7136 14.3932 15.1253C13.9815 15.537 13.423 15.7684 12.8407 15.7684ZM20.1593 12.1091V23.0869H23.0867V16.8661C23.3581 16.3789 23.7439 15.965 24.2108 15.6601C24.7626 15.3058 25.5589 15.0365 26.7459 15.0365V12.1091C25.3174 12.1091 24.101 12.396 23.0867 12.9288V12.1091H20.1593Z" fill="#D9D9D9"/>
</svg>
