<svg width="33" height="33" viewBox="0 0 33 33" fill="none" xmlns="http://www.w3.org/2000/svg">
<path d="M5.84358 0.825195C2.61241 0.825195 0 3.43787 0 6.66929V27.1561C0 30.3875 2.61241 33.0002 5.84358 33.0002H27.1564C30.3876 33.0002 33 30.3875 33 27.1561V6.66929C33 3.43787 30.3876 0.825195 27.1564 0.825195H5.84358ZM11.8251 9.00662C12.9525 9.00662 13.8876 9.14377 14.6574 9.43252C15.3477 9.66708 15.9771 10.0524 16.5 10.5605C16.943 11.005 17.2853 11.5394 17.5039 12.1277C17.7102 12.7052 17.8197 13.2964 17.8197 13.9151C17.8197 15.0976 17.5447 16.0739 16.9947 16.8439C16.4451 17.6137 15.6753 18.1914 14.7814 18.5214C13.8463 18.8654 12.8151 18.9889 11.6877 18.9889C11.3577 18.9889 11.1372 18.9889 10.9998 18.9752C10.8624 18.9615 10.6698 18.9615 10.4087 18.9615V23.3753C10.4223 23.4714 10.3537 23.5542 10.2576 23.5679H7.59C7.48017 23.5679 7.42552 23.5124 7.42552 23.3887V9.2402C7.42552 9.14403 7.46677 9.0886 7.56293 9.0886C7.79677 9.0886 8.01668 9.0886 8.33276 9.07519C8.66276 9.06127 9.00642 9.06179 9.37767 9.04787C9.74892 9.0342 10.1478 9.03395 10.5739 9.02028C11.0003 9.00636 11.4126 9.00662 11.8251 9.00662ZM12.1319 11.7147C12.0617 11.7133 11.9914 11.7135 11.9213 11.7152C11.5639 11.7152 11.2476 11.7155 10.9862 11.7294C10.7113 11.7155 10.519 11.7291 10.4228 11.7428V16.3628C10.6152 16.3767 10.7936 16.3901 10.9586 16.3901H11.6877C12.2239 16.3901 12.7602 16.3076 13.2688 16.1426C13.7089 16.0189 14.0938 15.7574 14.3962 15.4138C14.685 15.0699 14.8227 14.6027 14.8227 13.9976C14.8353 13.568 14.7257 13.1437 14.5066 12.774C14.2728 12.4167 13.9425 12.1414 13.5437 11.9903C13.0984 11.8098 12.6217 11.7242 12.1319 11.7147ZM23.6638 12.4167C24.2277 12.4167 24.8052 12.4574 25.3687 12.5399C25.7812 12.5949 26.1798 12.7055 26.5511 12.8568C26.6063 12.8705 26.6612 12.9251 26.6885 12.98C26.7024 13.0349 26.7163 13.0901 26.7163 13.145V15.3864C26.7165 15.4131 26.7103 15.4395 26.6984 15.4633C26.6865 15.4872 26.6692 15.5079 26.6478 15.5239C26.524 15.5514 26.4552 15.5514 26.4003 15.5239C25.9878 15.3039 25.5474 15.1529 25.0797 15.0567C24.5711 14.9466 24.0624 14.8775 23.5401 14.8775C23.265 14.8636 22.976 14.9054 22.7148 14.9739C22.5359 15.0152 22.3848 15.1116 22.2887 15.249C22.2201 15.3591 22.1788 15.4965 22.1788 15.6203C22.1788 15.744 22.234 15.8678 22.3165 15.9776C22.4403 16.1289 22.605 16.253 22.7837 16.3494C23.1025 16.5142 23.4283 16.6653 23.76 16.8024C24.5025 17.0499 25.2174 17.394 25.8774 17.8065C26.3312 18.0953 26.7024 18.4805 26.9636 18.9479C27.1848 19.3864 27.2936 19.873 27.2802 20.364C27.2913 21.014 27.1041 21.6519 26.7434 22.1927C26.36 22.7415 25.825 23.1667 25.2038 23.4163C24.5298 23.705 23.7048 23.8564 22.7148 23.8564C22.0822 23.8564 21.4639 23.8014 20.8452 23.6777C20.3602 23.5939 19.8886 23.4459 19.4427 23.2376C19.3465 23.1827 19.2774 23.0863 19.2911 22.9762V20.5839C19.2911 20.5427 19.3047 20.4875 19.346 20.4602C19.3872 20.4326 19.4285 20.4468 19.4697 20.4741C19.9994 20.7866 20.5748 21.014 21.1749 21.148C21.6975 21.2855 22.2477 21.354 22.7978 21.354C23.3202 21.354 23.6914 21.2852 23.9389 21.1614C24.1588 21.0653 24.3099 20.8314 24.3099 20.5839C24.3099 20.3916 24.2001 20.2124 23.9799 20.0335C23.76 19.8549 23.3063 19.6489 22.6326 19.3877C21.9413 19.1442 21.2849 18.8114 20.6799 18.3977C20.249 18.0907 19.8921 17.6914 19.635 17.229C19.4156 16.7948 19.307 16.3129 19.3189 15.8265C19.3189 15.2354 19.4837 14.6715 19.7861 14.1629C20.1297 13.613 20.6389 13.1729 21.2303 12.898C21.8764 12.568 22.6872 12.4167 23.6638 12.4167Z" fill="#D9D9D9"/>
</svg>
