<svg width="36" height="33" viewBox="0 0 36 33" fill="none" xmlns="http://www.w3.org/2000/svg">
<path d="M18.0001 13.3814C19.6855 13.3814 21.0601 14.7674 21.0601 16.4999C21.0601 18.1499 19.6855 19.5524 18.0001 19.5524C16.3146 19.5524 14.9401 18.1499 14.9401 16.4999C14.9401 14.7674 16.3146 13.3814 18.0001 13.3814ZM10.4237 29.7C11.4546 30.327 13.7128 29.37 16.3146 26.895C15.4637 25.9214 14.6292 24.8654 13.8437 23.7599C12.5252 23.6318 11.2143 23.4335 9.91645 23.166C9.0819 26.697 9.39281 29.1225 10.4237 29.7ZM11.5855 20.2289L11.111 19.3874C10.931 19.8659 10.751 20.3444 10.6364 20.8064C11.0783 20.9054 11.5692 20.9879 12.0764 21.0704L11.5855 20.2289ZM22.2874 18.9749L23.6128 16.4999L22.2874 14.0249C21.7964 13.1504 21.2728 12.3749 20.7983 11.5994C19.9146 11.5499 18.9819 11.5499 18.0001 11.5499C17.0183 11.5499 16.0855 11.5499 15.2019 11.5994C14.7274 12.3749 14.2037 13.1504 13.7128 14.0249L12.3874 16.4999L13.7128 18.9749C14.2037 19.8494 14.7274 20.6249 15.2019 21.4004C16.0855 21.4499 17.0183 21.4499 18.0001 21.4499C18.9819 21.4499 19.9146 21.4499 20.7983 21.4004C21.2728 20.6249 21.7964 19.8494 22.2874 18.9749ZM18.0001 7.88694C17.6892 8.24994 17.3619 8.62944 17.0346 9.07494H18.9655C18.6383 8.62944 18.311 8.24994 18.0001 7.88694ZM18.0001 25.1129C18.311 24.7499 18.6383 24.3705 18.9655 23.9249H17.0346C17.3619 24.3705 17.6892 24.7499 18.0001 25.1129ZM25.5601 3.29994C24.5455 2.67294 22.2874 3.62994 19.6855 6.10494C20.5364 7.07844 21.371 8.13444 22.1564 9.23994C23.4983 9.37194 24.8237 9.56994 26.0837 9.83394C26.9183 6.30294 26.6074 3.87744 25.5601 3.29994ZM24.4146 12.7709L24.8892 13.6124C25.0692 13.1339 25.2492 12.6554 25.3637 12.1934C24.9219 12.0944 24.431 12.0119 23.9237 11.9294L24.4146 12.7709ZM26.7874 1.13844C29.1928 2.52444 29.4546 6.17094 28.4401 10.4279C32.5964 11.6654 35.591 13.7114 35.591 16.4999C35.591 19.2884 32.5964 21.3344 28.4401 22.572C29.4546 26.829 29.1928 30.4755 26.7874 31.8615C24.3983 33.2475 21.1419 31.6635 18.0001 28.644C14.8583 31.6635 11.6019 33.2475 9.19645 31.8615C6.80736 30.4755 6.54554 26.829 7.56009 22.572C3.40372 21.3344 0.40918 19.2884 0.40918 16.4999C0.40918 13.7114 3.40372 11.6654 7.56009 10.4279C6.54554 6.17094 6.80736 2.52444 9.19645 1.13844C11.6019 -0.24756 14.8583 1.33644 18.0001 4.35594C21.1419 1.33644 24.3983 -0.24756 26.7874 1.13844ZM26.3128 16.4999C26.8692 17.7374 27.3601 18.9749 27.7692 20.2289C31.2055 19.1894 33.1364 17.7044 33.1364 16.4999C33.1364 15.2954 31.2055 13.8104 27.7692 12.7709C27.3601 14.0249 26.8692 15.2624 26.3128 16.4999ZM9.68736 16.4999C9.131 15.2624 8.64009 14.0249 8.231 12.7709C4.79463 13.8104 2.86372 15.2954 2.86372 16.4999C2.86372 17.7044 4.79463 19.1894 8.231 20.2289C8.64009 18.9749 9.131 17.7374 9.68736 16.4999ZM24.4146 20.2289L23.9237 21.0704C24.431 20.9879 24.9219 20.9054 25.3637 20.8064C25.2492 20.3444 25.0692 19.8659 24.8892 19.3874L24.4146 20.2289ZM19.6855 26.895C22.2874 29.37 24.5455 30.327 25.5601 29.7C26.6074 29.1225 26.9183 26.697 26.0837 23.166C24.8237 23.43 23.4983 23.6279 22.1564 23.7599C21.371 24.8654 20.5364 25.9214 19.6855 26.895ZM11.5855 12.7709L12.0764 11.9294C11.5692 12.0119 11.0783 12.0944 10.6364 12.1934C10.751 12.6554 10.931 13.1339 11.111 13.6124L11.5855 12.7709ZM16.3146 6.10494C13.7128 3.62994 11.4546 2.67294 10.4237 3.29994C9.39281 3.87744 9.0819 6.30294 9.91645 9.83394C11.2143 9.56639 12.5252 9.36812 13.8437 9.23994C14.6292 8.13444 15.4637 7.07844 16.3146 6.10494Z" fill="#D9D9D9"/>
</svg>
