<svg width="56" height="33" viewBox="0 0 56 33" fill="none" xmlns="http://www.w3.org/2000/svg">
<path d="M27.9999 0C20.6256 0 16.0409 3.6575 14.1904 11C16.9523 7.3425 20.1837 5.9675 23.8571 6.875C25.9561 7.3975 27.4751 8.91 29.1323 10.5875C31.839 13.3375 34.9047 16.5 41.8094 16.5C49.1837 16.5 53.7685 12.8425 55.619 5.5C52.8571 9.1575 49.6256 10.5325 45.9523 9.625C43.8532 9.1025 42.3618 7.59 40.6771 5.9125C37.9704 3.1625 34.9047 0 27.9999 0ZM14.1904 16.5C6.8161 16.5 2.23134 20.1575 0.380859 27.5C3.14276 23.8425 6.37419 22.4675 10.0475 23.375C12.1466 23.8975 13.638 25.41 15.3228 27.0875C18.0294 29.8375 21.0951 33 27.9999 33C35.3742 33 39.959 29.3425 41.8094 22C39.0475 25.6575 35.8161 27.0325 32.1428 26.125C30.0437 25.6025 28.5523 24.09 26.8675 22.4125C24.1609 19.6625 21.0951 16.5 14.1904 16.5Z" fill="#D9D9D9"/>
</svg>
