<svg width="33" height="33" viewBox="0 0 33 33" fill="none" xmlns="http://www.w3.org/2000/svg">
<path d="M29.3187 0H3.17167C1.42083 0 0 1.44283 0 3.223V29.777C0 31.5553 1.42083 33 3.17167 33H29.3187C31.0713 33 32.4903 31.5572 32.4903 29.777V3.223C32.4903 1.44467 31.0713 0 29.3187 0ZM18.8467 18.304H14.7858V30.0997H11.55V18.304H7.48733V15.6622H18.8467V18.304ZM29.3187 27.9785C29.0638 28.5597 28.6275 28.9905 28.1123 29.3333C27.566 29.6711 26.9648 29.9107 26.3358 30.041C25.6263 30.1903 24.903 30.2641 24.178 30.261C23.4333 30.2633 22.69 30.1958 21.9578 30.0593C21.3185 29.9468 20.6986 29.743 20.1172 29.4543V26.3578L19.9962 26.2607L20.1172 26.2332V26.3578C20.6562 26.7942 21.2502 27.1272 21.8992 27.357C22.5353 27.6008 23.232 27.7237 23.9305 27.7237C24.3742 27.7237 24.7115 27.6852 25.0103 27.6137C25.2788 27.5525 25.5357 27.4485 25.7712 27.3057C25.9586 27.1921 26.1139 27.0324 26.2222 26.8418C26.3342 26.6299 26.3847 26.3908 26.3678 26.1517C26.351 25.9126 26.2675 25.6829 26.1268 25.4888C25.9555 25.2464 25.7404 25.0381 25.4925 24.8747C25.1935 24.6631 24.8742 24.4819 24.5392 24.3338C24.1597 24.1597 23.7728 23.9782 23.3347 23.7985C22.2548 23.2833 21.4042 22.7682 20.8597 22.0568C20.3078 21.4152 20.0347 20.5755 20.0347 19.6093C20.0347 18.8357 20.1813 18.216 20.4783 17.6752C20.7955 17.0958 21.1695 16.6705 21.6847 16.3222C22.1925 15.9683 22.7627 15.7098 23.4612 15.5485C24.1578 15.3872 24.8582 15.3047 25.619 15.3047C26.3798 15.3047 27.016 15.3487 27.5862 15.4385C28.1563 15.5302 28.6898 15.6713 29.172 15.8583V18.887C28.9346 18.713 28.6796 18.5643 28.4112 18.4433C27.8434 18.197 27.2454 18.0275 26.6328 17.9392C26.3597 17.8983 26.084 17.8781 25.8078 17.8787C25.467 17.8741 25.1268 17.9092 24.794 17.9832C24.5247 18.0369 24.2667 18.1367 24.0313 18.2783C23.8396 18.3928 23.6766 18.5496 23.5547 18.7367C23.4412 18.9159 23.382 19.1241 23.3842 19.3362C23.3842 19.5733 23.4477 19.7878 23.5748 19.9797C23.7007 20.1654 23.881 20.3463 24.1157 20.5223C24.3247 20.6892 24.6107 20.8578 24.9407 21.0247C25.3202 21.1915 25.663 21.3602 26.0828 21.5343C26.653 21.7782 27.1608 22.0495 27.6045 22.308C28.05 22.5647 28.424 22.8672 28.7467 23.21C29.0895 23.5308 29.337 23.9195 29.5093 24.3705C29.6817 24.8215 29.7697 25.3293 29.7697 25.916C29.7697 26.7538 29.5717 27.3992 29.3187 27.9785Z" fill="#D9D9D9"/>
</svg>
