<svg width="33" height="33" viewBox="0 0 33 33" fill="none" xmlns="http://www.w3.org/2000/svg">
<path d="M31.8278 3.55576L25.0394 0.289793C24.6555 0.103781 24.2231 0.0420611 23.8025 0.11322C23.3818 0.184378 22.9938 0.384876 22.6924 0.686824L9.6901 12.5514L4.02369 8.25414C3.7685 8.05903 3.45292 7.95969 3.13199 7.97345C2.81106 7.98721 2.50514 8.11319 2.26757 8.32942L0.452673 9.98354C0.31082 10.1117 0.197337 10.2682 0.119507 10.4428C0.0416781 10.6175 0.00122235 10.8065 0.000736844 10.9977C0.000251336 11.1889 0.0397468 11.3781 0.116688 11.5531C0.193629 11.7281 0.306317 11.8852 0.447517 12.0141L5.36218 16.499L0.447517 20.9839C0.306317 21.1128 0.193629 21.2698 0.116688 21.4449C0.0397468 21.6199 0.000251336 21.8091 0.000736844 22.0003C0.00122235 22.1915 0.0416781 22.3805 0.119507 22.5551C0.197337 22.7298 0.31082 22.8862 0.452673 23.0144L2.26757 24.6685C2.50514 24.8848 2.81106 25.0108 3.13199 25.0245C3.45292 25.0383 3.7685 24.9389 4.02369 24.7438L9.6901 20.4415L22.6986 32.3111C22.9988 32.6133 23.3859 32.8141 23.8058 32.8853C24.2258 32.9564 24.6575 32.8945 25.0404 32.7082L31.835 29.437C32.1851 29.2693 32.4804 29.0056 32.6867 28.6766C32.8929 28.3477 33.0017 27.967 33.0002 27.5787V5.41201C33.0002 4.62207 32.5434 3.89711 31.8298 3.5537L31.8278 3.55576ZM24.7538 23.9931L14.8822 16.5L24.7538 9.00695V23.9931Z" fill="#D9D9D9"/>
</svg>
