<svg width="35" height="30" viewBox="0 0 35 30" fill="none" xmlns="http://www.w3.org/2000/svg">
<path d="M34.6939 1.52183C35.0716 0.840926 35.2216 0.30829 34.4158 0.398133H29.3408C27.9374 0.318718 25.9717 2.20881 24.0573 4.47146C23.2705 2.3135 22.2481 0.528996 20.0947 0.538595H14.2762C14.2762 0.538595 12.4409 0.510626 10.9801 4.40785C10.4574 3.25433 7.38308 0.768002 6.3676 0.398686C5.35206 0.0293001 1.16048 0.124599 0.420486 0.327902C-0.319502 0.531068 0.142401 1.17067 0.142401 1.17067C1.44485 2.66893 5.46642 12.5587 10.4223 14.9387L3.61847 27.7173C3.12136 28.4044 3.24509 28.8856 4.0008 29.157L10.0838 29.0517C11.4687 28.8626 12.4496 28.1577 13.1427 27.0852L17.5495 20.3754L22.5975 27.7525C23.3331 28.5585 24.681 28.9027 25.2739 28.9112H30.8008C31.6184 28.865 31.8138 28.7313 31.635 27.9983L24.6672 14.9414C30.1403 12.0563 32.7102 4.01892 34.6939 1.52183ZM20.1495 3.76355L22.1157 3.74442C21.6339 4.38465 20.9607 4.68588 20.0928 4.64209L20.1495 3.76355ZM21.059 5.21962C21.8525 5.36995 22.0761 5.73285 21.8944 7.34947C21.7126 8.96609 19.8737 8.3903 19.7875 7.47764C19.7015 6.56505 20.2655 5.06921 21.059 5.21962ZM18.9523 8.34078C18.8894 9.01443 18.8329 9.73387 17.4804 9.85451C15.96 9.99 15.8759 8.46136 15.8759 8.46136C17.2682 9.4392 18.078 9.24612 18.9523 8.34078ZM14.7434 3.76355L14.8001 4.64209C13.9322 4.68588 13.259 4.38465 12.7772 3.74442L14.7434 3.76355ZM15.1053 7.47764C15.0192 8.3903 13.1802 8.96609 12.9984 7.34947C12.8167 5.73285 13.0404 5.36995 13.8338 5.21962C14.6273 5.06921 15.1913 6.56505 15.1053 7.47764ZM22.8235 14.6429C22.8235 14.6429 29.2896 26.0169 29.619 27.0152C27.5333 27.811 24.234 27.6514 22.9827 26.3873C21.7313 25.1232 17.8005 17.815 17.8005 17.815L12.0506 26.3873C11.393 27.4048 10.7642 27.4427 9.59511 27.6088L5.05497 27.6068L9.09144 20.2184C13.5871 13.7573 17.5254 12.1674 22.1885 10.5268C25.4724 9.37153 28.0621 8.45404 31.1117 5.5562C29.7909 8.18982 26.0687 12.9322 22.8235 14.6429Z" fill="#D9D9D9"/>
</svg>
