<svg width="33" height="33" viewBox="0 0 33 33" fill="none" xmlns="http://www.w3.org/2000/svg">
<path d="M16.5001 0.853516C7.87882 0.853516 0.853516 7.87882 0.853516 16.5001C0.853516 25.1213 7.87882 32.1466 16.5001 32.1466C25.1213 32.1466 32.1466 25.1213 32.1466 16.5001C32.1466 7.87882 25.1213 0.853516 16.5001 0.853516ZM2.43382 16.5001C2.43382 14.466 2.87192 12.5258 3.65425 10.7734L10.3666 29.1581C5.67265 26.8737 2.43382 22.0702 2.43382 16.5001ZM16.5001 30.5663C15.1232 30.5663 13.7932 30.3629 12.5258 29.9874L16.7504 17.7205L21.0689 29.5649C21.1002 29.6275 21.1314 29.7058 21.1627 29.7527C19.7076 30.2847 18.143 30.5663 16.5001 30.5663ZM18.4402 9.89722C19.2852 9.85028 20.0518 9.7564 20.0518 9.7564C20.8029 9.66252 20.7246 8.55162 19.958 8.59856C19.958 8.59856 17.6736 8.77067 16.2028 8.77067C14.8259 8.77067 12.4945 8.59856 12.4945 8.59856C11.7435 8.56727 11.6496 9.72511 12.4163 9.77205C12.4163 9.77205 13.1361 9.86593 13.8871 9.91287L16.0776 15.9211L12.9952 25.1526L7.87882 9.89722C8.72373 9.86593 9.49041 9.77205 9.49041 9.77205C10.2414 9.67817 10.1632 8.56727 9.39653 8.61421C9.39653 8.61421 7.11214 8.78632 5.64136 8.78632C5.37537 8.78632 5.06244 8.78632 4.73386 8.77067C7.2686 4.95291 11.5871 2.43382 16.5001 2.43382C20.1614 2.43382 23.4941 3.82636 25.9975 6.1264C25.9349 6.1264 25.8724 6.11076 25.8098 6.11076C24.4329 6.11076 23.4471 7.31554 23.4471 8.61421C23.4471 9.77205 24.1199 10.7578 24.824 11.9156C25.356 12.8544 25.9819 14.0592 25.9819 15.796C25.9819 17.0008 25.5125 18.3933 24.9179 20.3491L23.5097 25.0431L18.4402 9.89722ZM28.8452 9.7564C30.6018 12.9729 31.0337 16.7481 30.0489 20.2782C29.0641 23.8084 26.7403 26.8148 23.5723 28.6574L27.8751 16.2341C28.6731 14.2313 28.9391 12.6197 28.9391 11.1959C28.9391 10.6795 28.9078 10.1945 28.8452 9.7564Z" fill="#D9D9D9"/>
</svg>
